<?xml version="1.0" encoding="utf-8"?>
<!-- Generator: Adobe Illustrator 27.0.0, SVG Export Plug-In . SVG Version: 6.00 Build 0)  -->
<svg version="1.1" id="Calque_1" xmlns="http://www.w3.org/2000/svg" xmlns:xlink="http://www.w3.org/1999/xlink" x="0px" y="0px"
	 viewBox="0 0 800 800" style="enable-background:new 0 0 800 800;" xml:space="preserve">
<style type="text/css">
	.st0{fill:none;stroke:#52B788;stroke-width:50;stroke-linecap:round;stroke-linejoin:round;stroke-miterlimit:133.3333;}
	.st1{fill:none;stroke:#52B788;stroke-width:50;stroke-linecap:round;stroke-miterlimit:133.3333;}
</style>
<path class="st0" d="M316.7,446.7l47.6,53.3l119-133.3"/>
<path class="st1" d="M683.3,233.3v200c0,125.7,0,188.6-39.1,227.6C605.2,700,542.4,700,416.7,700h-33.3 M116.7,233.3v200
	c0,125.7,0,188.6,39.1,227.6c23.5,23.5,55.6,32.9,104.8,36.6"/>
<path class="st1" d="M400,100H133.3c-31.4,0-47.1,0-56.9,9.8c-9.8,9.8-9.8,25.5-9.8,56.9s0,47.1,9.8,56.9c9.8,9.8,25.5,9.8,56.9,9.8
	h533.3c31.4,0,47.1,0,56.9-9.8c9.8-9.8,9.8-25.5,9.8-56.9s0-47.1-9.8-56.9c-9.8-9.8-25.5-9.8-56.9-9.8H533.3"/>
</svg>
