<?xml version="1.0" encoding="utf-8"?>
<!-- Generator: Adobe Illustrator 27.0.0, SVG Export Plug-In . SVG Version: 6.00 Build 0)  -->
<svg version="1.1" id="Calque_1" xmlns="http://www.w3.org/2000/svg" xmlns:xlink="http://www.w3.org/1999/xlink" x="0px" y="0px"
	 viewBox="0 0 800 800" style="enable-background:new 0 0 800 800;" xml:space="preserve">
<style type="text/css">
	.st0{fill:none;stroke:#FF4438;stroke-width:50;stroke-miterlimit:133.3333;}
	.st1{fill:none;stroke:#FF4438;stroke-width:50;stroke-linecap:round;stroke-miterlimit:133.3333;}
</style>
<path class="st0" d="M266.7,116.7c0-27.6,22.4-50,50-50h166.7c27.6,0,50,22.4,50,50V150c0,27.6-22.4,50-50,50H316.7
	c-27.6,0-50-22.4-50-50V116.7z"/>
<path class="st1" d="M483.3,366.7L316.7,533.3 M316.7,366.7l166.7,166.7"/>
<path class="st1" d="M700,533.3c0,94.3,0,141.4-29.3,170.7c-29.3,29.3-76.4,29.3-170.7,29.3H300c-94.3,0-141.4,0-170.7-29.3
	C100,674.8,100,627.6,100,533.3v-100 M533.3,133.4c72.5,0.4,111.8,3.6,137.4,29.2C700,191.9,700,239.1,700,333.3V400 M266.7,133.4
	c-72.5,0.4-111.8,3.6-137.4,29.2c-25.6,25.6-28.8,64.9-29.2,137.4"/>
</svg>
