<?xml version="1.0" encoding="utf-8"?>
<!-- Generator: Adobe Illustrator 27.0.0, SVG Export Plug-In . SVG Version: 6.00 Build 0)  -->
<svg version="1.1" id="Calque_1" xmlns="http://www.w3.org/2000/svg" xmlns:xlink="http://www.w3.org/1999/xlink" x="0px" y="0px"
	 viewBox="0 0 800 800" style="enable-background:new 0 0 800 800;" xml:space="preserve">
<style type="text/css">
	.st0{fill:none;stroke:#023E8A;stroke-width:50;stroke-linecap:round;stroke-miterlimit:133.3333;}
	.st1{fill:none;stroke:#023E8A;stroke-width:50;stroke-miterlimit:133.3333;}
</style>
<path class="st0" d="M300,148.7c30.4-9.7,63.7-15.3,100-15.3c139.4,0,234.3,83.3,290.8,156.8c28.3,36.8,42.5,55.2,42.5,109.9
	s-14.2,73-42.5,109.9C634.3,583.3,539.4,666.7,400,666.7c-139.4,0-234.3-83.3-290.8-156.8C80.8,473,66.7,454.6,66.7,400
	s14.2-73,42.5-109.9c16-20.8,35.2-42.5,57.5-62.8"/>
<path class="st1" d="M500,400c0,55.2-44.8,100-100,100s-100-44.8-100-100s44.8-100,100-100S500,344.8,500,400z"/>
</svg>
