<?xml version="1.0" encoding="utf-8"?>
<!-- Generator: Adobe Illustrator 27.0.0, SVG Export Plug-In . SVG Version: 6.00 Build 0)  -->
<svg version="1.1" id="Calque_1" xmlns="http://www.w3.org/2000/svg" xmlns:xlink="http://www.w3.org/1999/xlink" x="0px" y="0px"
	 viewBox="0 0 800 800" style="enable-background:new 0 0 800 800;" xml:space="preserve">
<style type="text/css">
	.st0{fill:none;stroke:#558BB7;stroke-width:50;stroke-linecap:round;stroke-miterlimit:133.3333;}
</style>
<path class="st0" d="M66.7,400c0,157.1,0,235.7,48.8,284.5s127.4,48.8,284.5,48.8s235.7,0,284.5-48.8s48.8-127.4,48.8-284.5v-50
	 M450,66.7h-50c-157.1,0-235.7,0-284.5,48.8C83,148,72.2,193.6,68.5,266.7"/>
<path class="st0" d="M555.1,115.2l21.6-21.6c35.8-35.8,93.9-35.8,129.8,0c35.8,35.8,35.8,93.9,0,129.8L684.9,245 M555.1,115.2
	c0,0,2.7,46,43.3,86.5c40.6,40.6,86.5,43.3,86.5,43.3 M555.1,115.2L356.2,314c-13.5,13.5-20.2,20.2-26,27.6
	c-6.8,8.8-12.7,18.2-17.5,28.3c-4.1,8.5-7.1,17.5-13.1,35.6l-19.3,57.8 M684.8,244.9l-99.4,99.4 M486,443.8
	c-13.5,13.5-20.2,20.2-27.6,26c-8.8,6.8-18.2,12.7-28.3,17.5c-8.5,4-17.5,7.1-35.6,13.1l-57.8,19.3 M336.7,519.6l-37.4,12.5
	c-8.9,3-18.7,0.6-25.3-6c-6.6-6.6-8.9-16.4-6-25.3l12.5-37.4 M336.7,519.6l-56.3-56.3"/>
</svg>
